# xmcd
# Track frame offsets:
# 150
# 16840
# 27470
# 43070
# 56767
# 70400
# 80965
# 95197
# 110965
# 122702
# 142052
#
# Disc length: 2101 seconds
# Revision: 0
# Processed by: cddbd v1.4PL0 Copyright (c) Steve Scherf et al.
# Submitted via: VisiTrax 2.9.5.180 - For more info visit www.synapsa.com
#
DISCID=ad08330b
DTITLE=Milton Wooldridge - Old Guitar
DYEAR=1999
DGENRE=
TTITLE0=Old guitar
TTITLE1=Hard row to hoe
TTITLE2=No one can turn back the sun
TTITLE3=The warden
TTITLE4=Losing again
TTITLE5=Look what the wind blew in
TTITLE6=Will she still love me tomorrow
TTITLE7=A step in the right direction
TTITLE8=Goodbye so long
TTITLE9=Dear Santa Claus
TTITLE10="Ollie" (The oldest ornament)
EXTD=
EXTT0=
EXTT1=
EXTT2=
EXTT3=
EXTT4=
EXTT5=
EXTT6=
EXTT7=
EXTT8=
EXTT9=
EXTT10=
PLAYORDER=
